# xmcd
#
# Track frame offsets:
#	150
#	62922
#	83940
#	142260
#	158547
#	218762
#	237820
#
# Disc length: 3304 seconds
#
# Revision: 1
# Processed by: cddbd v1.5.1PL0 Copyright (c) Steve Scherf et al.
# Submitted via: CDex 1.50Beta5
#
DISCID=5d0ce607
DTITLE=井上涼子 - ラジオドラマIi 〜涼子の学園生活2〜
DYEAR=1998
DGENRE=Soundtrack
TTITLE0=（第4話）クリスマス
TTITLE1=Kiss Me Again
TTITLE2=（第5話）お正月
TTITLE3=恋のうた。
TTITLE4=（第6話）センター試験前後
TTITLE5=時は夢のように
TTITLE6=エンディング
EXTD=
EXTT0=
EXTT1=
EXTT2=
EXTT3=
EXTT4=
EXTT5=
EXTT6=
PLAYORDER=
